<svg xmlns="http://www.w3.org/2000/svg" width="17.067" height="16.411" viewBox="0 0 17.067 16.411"><path d="M4.5,11a9.9,9.9,0,0,0,1.92,5.444,34.022,34.022,0,0,0,6.613,6.33s1.2-.833,2.7-2.117L4.664,9.773A4.689,4.689,0,0,0,4.5,11Z" transform="translate(-4.5 -6.368)" fill="#ffd98e"/><path d="M20.751,14.018A9.823,9.823,0,0,0,22.63,8.574a4.638,4.638,0,0,0-4.595-4.636h-.041a4.668,4.668,0,0,0-3.9,2.133,4.668,4.668,0,0,0-3.9-2.133h-.041A4.632,4.632,0,0,0,7.052,5.168L18.618,16.549A20.494,20.494,0,0,0,20.751,14.018Z" transform="translate(-5.563 -3.938)" fill="#ffd98e"/></svg>