<svg id="Layer_1" data-name="Layer 1" xmlns="http://www.w3.org/2000/svg" viewBox="0 0 35.91 31.92"><path id="Icon_awesome-map-marked" data-name="Icon awesome-map-marked" d="M331.73,491.36a7.85,7.85,0,0,0-7.86,7.85h0c0,3.51,5.13,9.9,7.1,12.23a1,1,0,0,0,1.39.12l.12-.12c2-2.32,7.1-8.72,7.1-12.23A7.86,7.86,0,0,0,331.73,491.36ZM315,504.82a2,2,0,0,0-1.25,1.85v15.61a1,1,0,0,0,1,1,1.16,1.16,0,0,0,.37-.07l8.61-3.92V504.76a18.5,18.5,0,0,1-1.33-2.9Zm16.7,9a3,3,0,0,1-2.27-1c-1.23-1.45-2.53-3.1-3.71-4.79v11.35l12,4V507.94c-1.18,1.69-2.48,3.34-3.71,4.79a3,3,0,0,1-2.27,1Zm16.6-12.37-8.61,3.91v18l8.72-3.49a2,2,0,0,0,1.25-1.85V502.33a1,1,0,0,0-1-1A.89.89,0,0,0,348.32,501.41Z" transform="translate(-313.77 -491.36)"/></svg>