<svg id="Layer_1" data-name="Layer 1" xmlns="http://www.w3.org/2000/svg" viewBox="0 0 34.41 31.96"><g id="Icon_ionic-md-analytics" data-name="Icon ionic-md-analytics"><path id="Path_2987" data-name="Path 2987" d="M315.39,389.63l-6.7,10.25a3.64,3.64,0,0,1,.83,2.32,3.69,3.69,0,1,1-7.37,0,3.91,3.91,0,0,1,.06-.68L297.78,399a3.67,3.67,0,0,1-2.55,1,3.71,3.71,0,0,1-1.81-.48l-4.71,4.41v4.39a3.29,3.29,0,0,0,3.28,3.28h27.86a3.28,3.28,0,0,0,3.27-3.28V392l-4.5-3A3.67,3.67,0,0,1,315.39,389.63Z" transform="translate(-288.71 -379.62)"/><path id="Path_2988" data-name="Path 2988" d="M295.24,392.6a3.69,3.69,0,0,1,3.68,3.69,3.87,3.87,0,0,1,0,.48l4.62,2.58a3.68,3.68,0,0,1,2.34-.83,4.43,4.43,0,0,1,.8.08l6.71-10.4a3.61,3.61,0,0,1-.69-2.13,3.69,3.69,0,0,1,7.38,0,4.3,4.3,0,0,1-.1.87l3.17,2.12V382.9a3.29,3.29,0,0,0-3.28-3.28H292a3.29,3.29,0,0,0-3.28,3.28v17.61l3.07-2.94a3.69,3.69,0,0,1,3.46-5Z" transform="translate(-288.71 -379.62)"/></g></svg>