<svg xmlns="http://www.w3.org/2000/svg" width="49.974" height="37.48" viewBox="0 0 49.974 37.48">
  <path id="Icon_material-contact-phone" data-name="Icon material-contact-phone" d="M45.809,4.5H4.164A4.177,4.177,0,0,0,0,8.664V37.816A4.177,4.177,0,0,0,4.164,41.98H45.809a4.159,4.159,0,0,0,4.144-4.164l.021-29.151A4.177,4.177,0,0,0,45.809,4.5ZM16.658,10.747a6.247,6.247,0,1,1-6.247,6.247A6.238,6.238,0,0,1,16.658,10.747ZM29.151,35.734H4.164V33.651c0-4.164,8.329-6.455,12.493-6.455s12.493,2.29,12.493,6.455ZM37.168,27.4h3.415l3.144,4.164-4.144,4.144A15.641,15.641,0,0,1,33.9,27.4a15.165,15.165,0,0,1,0-8.329,15.563,15.563,0,0,1,5.685-8.308l4.144,4.144-3.144,4.164H37.168a12.263,12.263,0,0,0,0,8.329Z" transform="translate(0 -4.5)" fill="#ffd98e" opacity="0.6"/>
</svg>
