<svg xmlns="http://www.w3.org/2000/svg" width="48" height="42.658" viewBox="0 0 48 42.658">
  <path id="Icon_awesome-edit" data-name="Icon awesome-edit" d="M33.55,6.932l7.517,7.517a.815.815,0,0,1,0,1.15l-18.2,18.2-7.733.858a1.621,1.621,0,0,1-1.792-1.792l.858-7.733,18.2-18.2A.815.815,0,0,1,33.55,6.932Zm13.5-1.908L42.983.957a3.259,3.259,0,0,0-4.6,0l-2.95,2.95a.815.815,0,0,0,0,1.15l7.517,7.517a.815.815,0,0,0,1.15,0l2.95-2.95a3.259,3.259,0,0,0,0-4.6ZM32,28.849v8.483H5.333V10.665h19.15a1.025,1.025,0,0,0,.708-.292L28.525,7.04a1,1,0,0,0-.708-1.708H4a4,4,0,0,0-4,4V38.665a4,4,0,0,0,4,4H33.333a4,4,0,0,0,4-4V25.515a1,1,0,0,0-1.708-.708L32.292,28.14A1.025,1.025,0,0,0,32,28.849Z" transform="translate(0 -0.007)" fill="#ffd98e" opacity="0.6"/>
</svg>
