<svg xmlns="http://www.w3.org/2000/svg" width="15.425" height="15.425" viewBox="0 0 15.425 15.425">
  <path id="Icon_metro-cross" data-name="Icon metro-cross" d="M17.855,14.32h0L13.176,9.641l4.679-4.679h0a.483.483,0,0,0,0-.682L15.644,2.069a.483.483,0,0,0-.682,0h0l-4.679,4.68L5.6,2.069h0a.483.483,0,0,0-.682,0L2.712,4.279a.483.483,0,0,0,0,.682h0L7.391,9.641,2.712,14.32h0a.483.483,0,0,0,0,.682l2.211,2.211a.483.483,0,0,0,.682,0h0l4.679-4.679,4.679,4.679h0a.483.483,0,0,0,.682,0L17.855,15a.483.483,0,0,0,0-.682Z" transform="translate(-2.571 -1.928)" fill="rgba(86,99,87,0.33)"/>
</svg>
