<svg xmlns="http://www.w3.org/2000/svg" width="45.913" height="45.913" viewBox="0 0 45.913 45.913">
  <path id="Icon_material-language" data-name="Icon material-language" d="M25.933,3A22.956,22.956,0,1,0,48.913,25.956,22.945,22.945,0,0,0,25.933,3ZM41.842,16.774H35.07A35.925,35.925,0,0,0,31.9,8.6,18.433,18.433,0,0,1,41.842,16.774ZM25.956,7.683a32.338,32.338,0,0,1,4.385,9.091H21.572A32.338,32.338,0,0,1,25.956,7.683ZM8.188,30.548a17.957,17.957,0,0,1,0-9.183h7.759a37.913,37.913,0,0,0-.321,4.591,37.913,37.913,0,0,0,.321,4.591Zm1.882,4.591h6.772a35.925,35.925,0,0,0,3.168,8.172A18.335,18.335,0,0,1,10.071,35.139Zm6.772-18.365H10.071A18.335,18.335,0,0,1,20.011,8.6,35.925,35.925,0,0,0,16.843,16.774ZM25.956,44.23a32.338,32.338,0,0,1-4.385-9.091h8.769A32.338,32.338,0,0,1,25.956,44.23Zm5.372-13.682H20.585a33.775,33.775,0,0,1-.367-4.591,33.482,33.482,0,0,1,.367-4.591H31.328a33.482,33.482,0,0,1,.367,4.591A33.775,33.775,0,0,1,31.328,30.548ZM31.9,43.311a35.925,35.925,0,0,0,3.168-8.172h6.772a18.433,18.433,0,0,1-9.94,8.172Zm4.063-12.764a37.913,37.913,0,0,0,.321-4.591,37.914,37.914,0,0,0-.321-4.591h7.759a17.957,17.957,0,0,1,0,9.183Z" transform="translate(-3 -3)" fill="#ffd98e" opacity="0.6"/>
</svg>
