<svg xmlns="http://www.w3.org/2000/svg" width="51" height="51" viewBox="0 0 51 51">
  <g id="Iconly_Light-outline_Logout" data-name="Iconly/Light-outline/Logout" opacity="0.6">
    <g id="Logout" transform="translate(4.297 4.296)">
      <path id="Logout-2" data-name="Logout" d="M9.423,42.5A9.425,9.425,0,0,1,.01,33.518L0,33.075V9.425A9.426,9.426,0,0,1,8.979.01L9.423,0H19.781A9.425,9.425,0,0,1,29.2,8.981l.01.444v1.981a1.594,1.594,0,0,1-3.173.218l-.015-.218V9.425A6.236,6.236,0,0,0,20.148,3.2l-.367-.01H9.423A6.237,6.237,0,0,0,3.2,9.058l-.01.367v23.65A6.236,6.236,0,0,0,9.056,39.3l.367.011H19.8a6.217,6.217,0,0,0,6.206-5.848l.01-.365v-2a1.595,1.595,0,0,1,3.175-.216l.013.216v2a9.4,9.4,0,0,1-8.947,9.39l-.457.01ZM34.7,28.571a1.594,1.594,0,0,1-.149-2.075l.153-.18,3.485-3.473H16.461a1.594,1.594,0,0,1-.216-3.173l.216-.013h21.73L34.7,16.185a1.6,1.6,0,0,1-.161-2.075l.155-.18a1.6,1.6,0,0,1,2.075-.159l.178.153,6.223,6.195a1.587,1.587,0,0,1,.456.926v0q0,.018,0,.036v0q0,.019,0,.038h0q0,.061,0,.121h0s0,0,0,0,0,.021,0,.032v.009c0,.009,0,.017,0,.026v.034l0,.022v.011l0,.027v.005a1.585,1.585,0,0,1-.155.535l0,0-.014.027-.012.022,0,.009-.016.029v0l-.017.028,0,0-.018.029h0l-.017.026,0,0-.016.023,0,.006-.014.02-.007.01,0,0h0a1.6,1.6,0,0,1-.192.215L36.95,28.575a1.592,1.592,0,0,1-2.253,0Z" fill="#ffd98e"/>
    </g>
  </g>
</svg>
