<svg xmlns="http://www.w3.org/2000/svg" width="16.19" height="16.19" viewBox="0 0 16.19 16.19"><path d="M10.492,2.25a7.918,7.918,0,0,0-7.948,7.887,7.805,7.805,0,0,0,1.141,4.072L2.25,18.44l4.4-1.4a7.962,7.962,0,0,0,11.79-6.906A7.918,7.918,0,0,0,10.492,2.25Zm3.952,10.882a2.053,2.053,0,0,1-1.406.906c-.373.02-.383.289-2.416-.594a8.293,8.293,0,0,1-3.351-3.168,3.9,3.9,0,0,1-.75-2.113A2.252,2.252,0,0,1,7.3,6.511a.778.778,0,0,1,.55-.232c.16,0,.264,0,.382,0s.3-.025.45.384.522,1.415.569,1.517a.368.368,0,0,1,0,.353,1.38,1.38,0,0,1-.215.328c-.106.114-.223.254-.318.341s-.216.2-.1.407a6.082,6.082,0,0,0,1.076,1.436,5.546,5.546,0,0,0,1.594,1.059c.2.109.318.1.442-.034s.529-.569.672-.765.277-.158.46-.084,1.162.6,1.361.707.332.164.38.249A1.669,1.669,0,0,1,14.444,13.132Z" transform="translate(-2.25 -2.25)" fill="rgba(86,99,87,0.33)"/></svg>